<svg id="Layer_1" data-name="Layer 1" xmlns="http://www.w3.org/2000/svg" viewBox="0 0 500 500"><defs><style>.cls-1{fill:#afafaf;}.cls-2{fill:#9b9b9b;}.cls-3{fill:none;stroke:#000;stroke-linecap:round;stroke-linejoin:round;stroke-width:15px;}</style></defs><title>shark</title><path class="cls-1" d="M117.25,352.28a48.39,48.39,0,0,0,52-20.21h0a48.43,48.43,0,0,0,80.69,0h0a48.43,48.43,0,0,0,80.69,0h0a48.4,48.4,0,0,0,40.35,21.64S340,167.6,111.19,146.32a5.73,5.73,0,0,0-5.62,8.37C120.49,183,159.69,271.26,117.25,352.28Z"/><path class="cls-2" d="M111.19,146.32a5.74,5.74,0,0,0-6.28,5.47C265.8,182.77,312,301.67,323.06,341a48.36,48.36,0,0,0,7.65-8.93h0a48.4,48.4,0,0,0,40.35,21.64S340,167.6,111.19,146.32Z"/><path class="cls-3" d="M117.25,352.28a48.39,48.39,0,0,0,52-20.21h0a48.43,48.43,0,0,0,80.69,0h0a48.43,48.43,0,0,0,80.69,0h0a48.4,48.4,0,0,0,40.35,21.64S340,167.6,111.19,146.32a5.73,5.73,0,0,0-5.62,8.37C120.49,183,159.69,271.26,117.25,352.28Z"/><path class="cls-3" d="M7.83,332.07a48.43,48.43,0,0,0,80.69,0h0a48.43,48.43,0,0,0,80.69,0h0a48.43,48.43,0,0,0,80.69,0h0a48.43,48.43,0,0,0,80.69,0h0a48.43,48.43,0,0,0,80.69,0h0a48.43,48.43,0,0,0,80.69,0"/></svg>